<svg width="21" height="20" viewBox="0 0 21 20" fill="none" xmlns="http://www.w3.org/2000/svg">
<path d="M15.2916 4.25002H20.0833V6.16669H18.1666V18.625C18.1666 18.8792 18.0657 19.1229 17.8859 19.3027C17.7062 19.4824 17.4625 19.5834 17.2083 19.5834H3.79163C3.53746 19.5834 3.2937 19.4824 3.11398 19.3027C2.93426 19.1229 2.83329 18.8792 2.83329 18.625V6.16669H0.916626V4.25002H5.70829V1.37502C5.70829 1.12085 5.80926 0.877099 5.98898 0.697376C6.1687 0.517654 6.41246 0.416687 6.66663 0.416687H14.3333C14.5875 0.416687 14.8312 0.517654 15.0109 0.697376C15.1907 0.877099 15.2916 1.12085 15.2916 1.37502V4.25002ZM16.25 6.16669H4.74996V17.6667H16.25V6.16669ZM11.855 11.9167L13.5494 13.611L12.1943 14.9661L10.5 13.2718L8.80563 14.9661L7.45054 13.611L9.14488 11.9167L7.45054 10.2224L8.80563 8.86727L10.5 10.5616L12.1943 8.86727L13.5494 10.2224L11.855 11.9167ZM7.62496 2.33335V4.25002H13.375V2.33335H7.62496Z" fill="#7A91B5"/>
</svg>
