<svg width="14" height="14" viewBox="0 0 14 14" fill="none" xmlns="http://www.w3.org/2000/svg">
<path d="M7.66668 12.292C9.01154 12.1209 10.2408 11.4441 11.1046 10.3992C11.9683 9.35427 12.4018 8.01967 12.3169 6.66663C12.232 5.31359 11.6351 4.04364 10.6475 3.1149C9.6599 2.18616 8.35571 1.66833 7.00001 1.66665C5.64265 1.66564 4.33598 2.18221 3.34624 3.1111C2.3565 4.03999 1.75817 5.31131 1.67317 6.66601C1.58817 8.0207 2.0229 9.35684 2.88877 10.4022C3.75464 11.4475 4.9865 12.1233 6.33334 12.292V8.33331H5.00001V6.99998H6.33334V5.89731C6.33334 5.00598 6.42668 4.68265 6.60001 4.35665C6.77075 4.0341 7.03465 3.77044 7.35734 3.59998C7.61201 3.46331 7.92868 3.38131 8.48201 3.34598C8.70134 3.33198 8.98534 3.34931 9.33401 3.39931V4.66598H9.00001C8.38868 4.66598 8.13601 4.69465 7.98534 4.77531C7.89544 4.82155 7.82225 4.89474 7.77601 4.98465C7.69601 5.13531 7.66668 5.28465 7.66668 5.89665V6.99998H9.33334L9.00001 8.33331H7.66668V12.292ZM7.00001 13.6666C3.31801 13.6666 0.333344 10.682 0.333344 6.99998C0.333344 3.31798 3.31801 0.333313 7.00001 0.333313C10.682 0.333313 13.6667 3.31798 13.6667 6.99998C13.6667 10.682 10.682 13.6666 7.00001 13.6666Z" fill="#436497"/>
</svg>
