<svg width="14" height="14" viewBox="0 0 14 14" fill="none" xmlns="http://www.w3.org/2000/svg">
<path d="M12.3333 6.99998C12.3332 5.81123 11.9359 4.65661 11.2046 3.71944C10.4733 2.78228 9.4498 2.1163 8.29673 1.82727C7.14366 1.53824 5.92708 1.64272 4.84017 2.12412C3.75326 2.60552 2.85834 3.43624 2.2975 4.48437C1.73667 5.53251 1.54209 6.73796 1.74464 7.90933C1.9472 9.08069 2.53528 10.1508 3.41552 10.9497C4.29575 11.7487 5.41767 12.2306 6.60312 12.3191C7.78857 12.4076 8.96959 12.0974 9.95865 11.438L10.6986 12.5473C9.60412 13.2791 8.31662 13.6688 6.99998 13.6666C3.31798 13.6666 0.333313 10.682 0.333313 6.99998C0.333313 3.31798 3.31798 0.333313 6.99998 0.333313C10.682 0.333313 13.6666 3.31798 13.6666 6.99998V7.99998C13.6667 8.49915 13.5067 8.98518 13.2101 9.38669C12.9135 9.78819 12.496 10.084 12.0189 10.2307C11.5417 10.3773 11.0301 10.3671 10.5592 10.2015C10.0883 10.0359 9.68296 9.72367 9.40265 9.31065C8.9577 9.77331 8.38862 10.0977 7.76379 10.2447C7.13896 10.3918 6.48496 10.3553 5.88035 10.1397C5.27575 9.92407 4.74627 9.53846 4.35552 9.02919C3.96477 8.51992 3.72937 7.90866 3.67761 7.26885C3.62585 6.62903 3.75992 5.98788 4.06373 5.42243C4.36754 4.85697 4.82815 4.39126 5.39023 4.08125C5.9523 3.77124 6.59194 3.63011 7.23228 3.67482C7.87263 3.71954 8.48644 3.94819 8.99998 4.33331H10.3333V7.99998C10.3333 8.2652 10.4387 8.51955 10.6262 8.70709C10.8137 8.89462 11.0681 8.99998 11.3333 8.99998C11.5985 8.99998 11.8529 8.89462 12.0404 8.70709C12.228 8.51955 12.3333 8.2652 12.3333 7.99998V6.99998ZM6.99998 4.99998C6.46955 4.99998 5.96084 5.21069 5.58577 5.58577C5.21069 5.96084 4.99998 6.46955 4.99998 6.99998C4.99998 7.53041 5.21069 8.03912 5.58577 8.41419C5.96084 8.78927 6.46955 8.99998 6.99998 8.99998C7.53041 8.99998 8.03912 8.78927 8.41419 8.41419C8.78927 8.03912 8.99998 7.53041 8.99998 6.99998C8.99998 6.46955 8.78927 5.96084 8.41419 5.58577C8.03912 5.21069 7.53041 4.99998 6.99998 4.99998Z" fill="#7388A8"/>
</svg>
