<svg width="14" height="14" viewBox="0 0 14 14" fill="none" xmlns="http://www.w3.org/2000/svg">
<path d="M7 12.3333C8.41448 12.3333 9.77104 11.7714 10.7712 10.7712C11.7714 9.77102 12.3333 8.41447 12.3333 6.99998C12.3333 5.58549 11.7714 4.22894 10.7712 3.22874C9.77104 2.22855 8.41448 1.66665 7 1.66665C5.58551 1.66665 4.22895 2.22855 3.22876 3.22874C2.22856 4.22894 1.66666 5.58549 1.66666 6.99998C1.66666 8.41447 2.22856 9.77102 3.22876 10.7712C4.22895 11.7714 5.58551 12.3333 7 12.3333ZM7 13.6666C3.318 13.6666 0.333328 10.682 0.333328 6.99998C0.333328 3.31798 3.318 0.333313 7 0.333313C10.682 0.333313 13.6667 3.31798 13.6667 6.99998C13.6667 10.682 10.682 13.6666 7 13.6666ZM4.92666 7.77998L3.26133 7.26065C2.90133 7.15065 2.89933 6.90265 3.342 6.72465L9.83066 4.21798C10.2073 4.06465 10.4207 4.25865 10.2987 4.74465L9.194 9.95798C9.11666 10.3293 8.89333 10.418 8.58333 10.2466L6.88266 8.98798L6.09 9.75331C6.00866 9.83198 5.94266 9.89931 5.81733 9.91598C5.69266 9.93331 5.59 9.89598 5.51466 9.68931L4.93466 7.77531L4.92666 7.78065V7.77998Z" fill="#436497"/>
</svg>
