<svg width="14" height="14" viewBox="0 0 14 14" fill="none" xmlns="http://www.w3.org/2000/svg">
<path d="M0.333313 12.3333H13.6666V13.6666H0.333313V12.3333ZM1.66665 6.99998H2.99998V11.6666H1.66665V6.99998ZM4.99998 6.99998H6.33331V11.6666H4.99998V6.99998ZM7.66665 6.99998H8.99998V11.6666H7.66665V6.99998ZM11 6.99998H12.3333V11.6666H11V6.99998ZM0.333313 3.66665L6.99998 0.333313L13.6666 3.66665V6.33331H0.333313V3.66665ZM1.66665 4.49065V4.99998H12.3333V4.49065L6.99998 1.82398L1.66665 4.49065ZM6.99998 4.33331C6.82317 4.33331 6.6536 4.26308 6.52858 4.13805C6.40355 4.01303 6.33331 3.84346 6.33331 3.66665C6.33331 3.48984 6.40355 3.32027 6.52858 3.19524C6.6536 3.07022 6.82317 2.99998 6.99998 2.99998C7.17679 2.99998 7.34636 3.07022 7.47138 3.19524C7.59641 3.32027 7.66665 3.48984 7.66665 3.66665C7.66665 3.84346 7.59641 4.01303 7.47138 4.13805C7.34636 4.26308 7.17679 4.33331 6.99998 4.33331Z" fill="#7388A8"/>
</svg>
