<svg width="16" height="16" viewBox="0 0 16 16" fill="none" xmlns="http://www.w3.org/2000/svg">
<path d="M8.00001 13.3333C9.4145 13.3333 10.7711 12.7714 11.7712 11.7712C12.7714 10.771 13.3333 9.41447 13.3333 7.99998C13.3333 6.58549 12.7714 5.22894 11.7712 4.22874C10.7711 3.22855 9.4145 2.66665 8.00001 2.66665C6.58552 2.66665 5.22897 3.22855 4.22877 4.22874C3.22858 5.22894 2.66668 6.58549 2.66668 7.99998C2.66668 9.41447 3.22858 10.771 4.22877 11.7712C5.22897 12.7714 6.58552 13.3333 8.00001 13.3333ZM8.00001 14.6666C4.31801 14.6666 1.33334 11.682 1.33334 7.99998C1.33334 4.31798 4.31801 1.33331 8.00001 1.33331C11.682 1.33331 14.6667 4.31798 14.6667 7.99998C14.6667 11.682 11.682 14.6666 8.00001 14.6666Z" fill="#436497"/>
<path d="M7.9144 9.98315H8.39243C8.39243 9.98315 8.53694 9.96913 8.61045 9.89946C8.67845 9.83548 8.67595 9.71542 8.67595 9.71542C8.67595 9.71542 8.66645 9.15322 8.96448 9.07041C9.258 8.9889 9.63503 9.61376 10.0346 9.85432C10.3366 10.0362 10.5661 9.99629 10.5661 9.99629L11.6347 9.98315C11.6347 9.98315 12.1937 9.95291 11.9287 9.56775C11.9072 9.5362 11.7742 9.28293 11.1341 8.76236C10.4641 8.21726 10.5541 8.30577 11.3612 7.36323C11.8527 6.78921 12.0492 6.43866 11.9877 6.2888C11.9292 6.14595 11.5677 6.18364 11.5677 6.18364L10.3656 6.18977C10.3656 6.18977 10.2766 6.17926 10.2101 6.21387C10.1456 6.24805 10.1041 6.32692 10.1041 6.32692C10.1041 6.32692 9.91355 6.77124 9.65953 7.14896C9.12399 7.94602 8.90947 7.98809 8.82197 7.93857C8.61845 7.82333 8.66945 7.47497 8.66945 7.22783C8.66945 6.45531 8.80296 6.13325 8.40894 6.04999C8.27793 6.02238 8.18192 6.00398 7.84739 6.00091C7.41836 5.99697 7.05484 6.00223 6.84932 6.0903C6.71231 6.14902 6.6068 6.28004 6.67131 6.28749C6.75081 6.29669 6.93083 6.32999 7.02633 6.44392C7.14984 6.59071 7.14534 6.9211 7.14534 6.9211C7.14534 6.9211 7.21635 7.83034 6.97983 7.94339C6.81732 8.02095 6.5948 7.86277 6.11727 7.13932C5.87275 6.76905 5.68774 6.35935 5.68774 6.35935C5.68774 6.35935 5.65223 6.28311 5.58873 6.24235C5.51172 6.19284 5.40371 6.17706 5.40371 6.17706L4.26063 6.1832C4.26063 6.1832 4.08912 6.18758 4.02611 6.25287C3.97011 6.31115 4.02161 6.43121 4.02161 6.43121C4.02161 6.43121 4.91668 8.2659 5.92975 9.19091C6.85932 10.0388 7.9144 9.98315 7.9144 9.98315Z" fill="#436497"/>
</svg>
