<svg width="14" height="14" viewBox="0 0 14 14" fill="none" xmlns="http://www.w3.org/2000/svg">
<path d="M3.83532 11.3293L4.31799 11.6113C5.13195 12.086 6.05771 12.3352 6.99999 12.3333C8.05482 12.3333 9.08597 12.0205 9.96303 11.4345C10.8401 10.8484 11.5237 10.0155 11.9273 9.04096C12.331 8.06642 12.4366 6.99406 12.2308 5.9595C12.0251 4.92493 11.5171 3.97462 10.7712 3.22874C10.0253 2.48286 9.07504 1.97491 8.04047 1.76912C7.00591 1.56334 5.93355 1.66895 4.95901 2.07262C3.98447 2.47629 3.15152 3.15988 2.56548 4.03694C1.97945 4.914 1.66666 5.94515 1.66666 6.99998C1.66666 7.95731 1.91799 8.87531 2.38932 9.68265L2.67066 10.1653L2.23532 11.766L3.83532 11.3293ZM0.335989 13.6666L1.23732 10.3546C0.643414 9.33655 0.331386 8.17864 0.333322 6.99998C0.333322 3.31798 3.31799 0.333313 6.99999 0.333313C10.682 0.333313 13.6667 3.31798 13.6667 6.99998C13.6667 10.682 10.682 13.6666 6.99999 13.6666C5.82184 13.6685 4.66443 13.3568 3.64666 12.7633L0.335989 13.6666ZM4.59399 3.87198C4.68332 3.86531 4.77332 3.86531 4.86266 3.86931C4.89865 3.87198 4.93466 3.87598 4.97066 3.87998C5.07666 3.89198 5.19332 3.95665 5.23266 4.04598C5.43132 4.49665 5.62466 4.95065 5.81132 5.40598C5.85266 5.50731 5.82799 5.63731 5.74932 5.76398C5.69522 5.84963 5.6367 5.93241 5.57399 6.01198C5.49866 6.10865 5.33666 6.28598 5.33666 6.28598C5.33666 6.28598 5.27066 6.36465 5.29599 6.46265C5.30532 6.49998 5.33599 6.55398 5.36399 6.59931L5.40332 6.66265C5.57399 6.94731 5.80332 7.23598 6.08332 7.50798C6.16332 7.58531 6.24132 7.66465 6.32532 7.73865C6.63732 8.01398 6.99065 8.23865 7.37199 8.40531L7.37532 8.40665C7.43199 8.43131 7.46066 8.44465 7.54332 8.47998C7.58466 8.49731 7.62732 8.51265 7.67066 8.52398C7.71544 8.53539 7.76259 8.53324 7.80615 8.51781C7.84971 8.50238 7.88771 8.47436 7.91532 8.43731C8.39799 7.85265 8.44199 7.81465 8.44599 7.81465V7.81598C8.47952 7.7847 8.51936 7.76097 8.56282 7.74636C8.60629 7.73176 8.65238 7.72663 8.69799 7.73131C8.73799 7.73398 8.77866 7.74131 8.81599 7.75798C9.16999 7.91998 9.74932 8.17265 9.74932 8.17265L10.1373 8.34665C10.2027 8.37798 10.262 8.45198 10.264 8.52331C10.2667 8.56798 10.2707 8.63998 10.2553 8.77198C10.234 8.94465 10.182 9.15198 10.13 9.26065C10.0944 9.33481 10.0471 9.40278 9.98999 9.46198C9.92272 9.53261 9.84907 9.59688 9.76999 9.65398C9.74263 9.67455 9.71485 9.69456 9.68666 9.71398C9.60374 9.76659 9.51854 9.81553 9.43132 9.86065C9.25968 9.95182 9.0701 10.0042 8.87599 10.014C8.75266 10.0206 8.62932 10.03 8.50532 10.0233C8.49999 10.0233 8.12666 9.96531 8.12666 9.96531C7.17882 9.71601 6.30225 9.24896 5.56666 8.60131C5.41599 8.46865 5.27666 8.32598 5.13399 8.18398C4.54066 7.59398 4.09266 6.95731 3.82066 6.35598C3.68143 6.06084 3.60623 5.73958 3.59999 5.41331C3.59724 5.00855 3.72955 4.61442 3.97599 4.29331C4.02466 4.23065 4.07066 4.16531 4.14999 4.08998C4.23466 4.00998 4.28799 3.96731 4.34599 3.93798C4.4231 3.89933 4.50723 3.87666 4.59332 3.87131L4.59399 3.87198Z" fill="#436497"/>
</svg>
